<svg id="svg" version="1.1" xmlns="http://www.w3.org/2000/svg" xmlns:xlink="http://www.w3.org/1999/xlink" width="400" height="400" viewBox="0, 0, 400,400"><g id="svgg"><path id="path0" d="M105.076 65.820 C 75.926 95.146,42.785 128.500,31.430 139.940 L 10.784 160.738 16.915 168.749 C 20.288 173.156,23.735 177.683,24.575 178.810 C 25.416 179.937,31.392 187.715,37.856 196.095 C 44.321 204.474,51.078 213.263,52.873 215.626 C 54.668 217.989,57.499 221.680,59.165 223.828 C 60.830 225.977,64.811 231.125,68.011 235.270 C 71.210 239.414,78.398 248.688,83.984 255.878 C 89.570 263.069,95.264 270.401,96.638 272.171 C 98.011 273.942,101.461 278.379,104.303 282.031 C 107.145 285.684,111.647 291.588,114.306 295.152 L 119.141 301.633 149.609 301.278 C 196.249 300.734,196.752 300.538,229.657 269.929 C 232.433 267.347,235.102 264.883,235.588 264.453 C 236.990 263.215,250.936 250.478,251.881 249.574 C 252.350 249.124,256.163 245.668,260.354 241.893 L 267.973 235.030 264.493 230.601 C 260.154 225.079,240.686 201.591,236.589 196.934 L 233.548 193.478 230.269 196.544 C 228.466 198.230,226.807 199.785,226.581 200.000 C 226.356 200.215,223.184 203.027,219.531 206.250 C 215.879 209.473,212.715 212.306,212.500 212.545 C 211.460 213.706,193.487 229.052,188.672 232.890 C 174.704 244.024,161.937 251.398,158.235 250.468 C 152.711 249.082,132.407 229.228,117.011 210.156 C 110.688 202.324,95.517 183.793,92.687 180.443 C 91.768 179.355,88.781 175.737,86.051 172.402 L 81.086 166.338 132.497 114.810 L 183.909 63.281 238.265 63.281 L 292.621 63.281 305.881 81.308 C 313.174 91.222,321.426 102.445,324.219 106.247 C 338.309 125.428,342.885 131.624,356.539 150.000 C 389.632 194.540,390.211 195.283,390.714 193.903 C 391.512 191.715,392.578 160.343,392.578 139.063 C 392.578 111.525,391.074 106.118,379.385 91.626 C 374.692 85.807,363.032 70.125,353.906 57.357 C 347.467 48.347,345.092 45.034,337.713 34.766 C 334.008 29.609,330.237 24.336,329.333 23.047 C 328.430 21.758,326.349 18.857,324.709 16.602 L 321.728 12.500 239.902 12.500 L 158.077 12.500 105.076 65.820 M220.703 101.215 C 219.844 101.415,217.207 101.968,214.844 102.446 C 201.935 105.052,182.463 120.440,148.242 155.078 C 133.287 170.215,132.775 167.315,155.390 195.533 C 165.718 208.419,166.633 209.342,167.571 207.824 C 167.833 207.400,172.160 203.456,177.188 199.060 C 182.215 194.663,186.504 190.878,186.719 190.650 C 187.755 189.548,202.045 176.922,208.984 170.977 C 233.047 150.364,243.015 147.651,255.039 158.446 C 265.787 168.094,312.745 226.014,316.992 234.860 C 319.083 239.218,315.963 242.732,261.785 297.037 L 220.703 338.215 164.063 338.216 L 107.422 338.218 100.000 328.067 C 95.918 322.484,87.944 311.688,82.280 304.075 C 59.981 274.104,44.663 253.563,39.189 246.289 C 36.036 242.100,28.841 232.520,23.200 225.000 C 17.559 217.480,12.317 210.647,11.550 209.814 C 10.783 208.981,10.156 207.993,10.156 207.619 C 10.156 207.245,9.749 207.191,9.251 207.498 C 7.905 208.330,8.964 269.747,10.496 279.688 C 13.281 297.760,16.243 303.010,46.861 344.141 C 56.456 357.031,67.856 372.395,72.193 378.282 L 80.078 388.985 160.156 389.013 L 240.234 389.040 243.750 385.872 C 245.684 384.129,252.363 377.739,258.594 371.672 C 284.627 346.322,321.188 310.921,350.366 282.813 C 356.388 277.012,366.943 266.765,373.821 260.042 C 380.700 253.319,387.836 246.463,389.680 244.807 L 393.032 241.797 384.006 230.469 C 379.042 224.238,372.905 216.504,370.367 213.281 C 357.640 197.118,346.048 182.547,315.813 144.709 L 282.798 103.392 264.641 102.471 C 241.260 101.286,222.685 100.755,220.703 101.215 " stroke="none" fill-rule="evenodd" fill="#d4d4d8"/></g></svg>